<?xml version="1.0" encoding="utf-8"?>
<!-- Generator: Adobe Illustrator 22.1.0, SVG Export Plug-In . SVG Version: 6.00 Build 0)  -->
<svg version="1.1" id="Layer_1" xmlns="http://www.w3.org/2000/svg" xmlns:xlink="http://www.w3.org/1999/xlink" x="0px" y="0px"
	 viewBox="0 0 329 329" style="enable-background:new 0 0 329 329;" xml:space="preserve">
<style type="text/css">
	.st0{fill:#FFFFFF;}
</style>
<g id="Layer_2_1_">
</g>
<path class="st0" d="M164.5,0C73.6,0,0,73.6,0,164.5C0,255.4,73.6,329,164.5,329c90.9,0,164.5-73.6,164.5-164.5
	C329,73.6,255.4,0,164.5,0z M164.5,319.3C79,319.3,9.7,250,9.7,164.5S79,9.7,164.5,9.7C250,9.7,319.3,79,319.3,164.5
	S250,319.3,164.5,319.3z"/>
<path class="st0" d="M164.5,13.2c-83.6,0-151.3,67.7-151.3,151.3c0,83.5,67.7,151.3,151.3,151.3c83.5,0,151.3-67.7,151.3-151.3
	C315.8,80.9,248,13.2,164.5,13.2z M164.5,290C95.2,290,39,233.8,39,164.5C39,95.2,95.2,39,164.5,39C233.8,39,290,95.2,290,164.5
	C290,233.8,233.8,290,164.5,290z"/>
<path class="st0" d="M278.7,122.5c-6.5,8.3-16.6,13.7-27.9,13.7c-19.5,0-35.4-15.8-35.4-35.4c0-15.1,9.5-28,22.8-33.1
	c-20.4-15.6-46-24.8-73.7-24.8c-67.2,0-121.6,54.5-121.6,121.6s54.4,121.6,121.6,121.6c67.2,0,121.6-54.4,121.6-121.6
	C286.1,149.8,283.5,135.6,278.7,122.5z M167.7,176.9c-5.2,0-9.4-4.2-9.4-9.4c0-5.2,4.2-9.4,9.4-9.4s9.4,4.2,9.4,9.4
	C177.2,172.7,172.9,176.9,167.7,176.9z M201.3,161.8c-11.3,0-20.4-9.2-20.4-20.4c0-11.3,9.1-20.4,20.4-20.4s20.4,9.1,20.4,20.4
	C221.7,152.6,212.5,161.8,201.3,161.8z"/>
</svg>
